<?xml version="1.0" encoding="UTF-8" standalone="no"?>
<!-- Created with Inkscape (http://www.inkscape.org/) -->

<svg
   xmlns:dc="http://purl.org/dc/elements/1.1/"
   xmlns:cc="http://creativecommons.org/ns#"
   xmlns:rdf="http://www.w3.org/1999/02/22-rdf-syntax-ns#"
   xmlns:svg="http://www.w3.org/2000/svg"
   xmlns="http://www.w3.org/2000/svg"
   xmlns:sodipodi="http://sodipodi.sourceforge.net/DTD/sodipodi-0.dtd"
   xmlns:inkscape="http://www.inkscape.org/namespaces/inkscape"
   width="158.75809mm"
   height="103.16604mm"
   viewBox="0 0 158.75808 103.16604"
   version="1.1"
   id="svg8"
   inkscape:version="0.92.3 (2405546, 2018-03-11)"
   sodipodi:docname="454545.svg">
  <defs
     id="defs2" />
  <sodipodi:namedview
     id="base"
     pagecolor="#ffffff"
     bordercolor="#666666"
     borderopacity="1.0"
     inkscape:pageopacity="0.0"
     inkscape:pageshadow="2"
     inkscape:zoom="0.49497475"
     inkscape:cx="553.21077"
     inkscape:cy="-62.316203"
     inkscape:document-units="mm"
     inkscape:current-layer="layer1"
     showgrid="false"
     inkscape:window-width="1920"
     inkscape:window-height="1005"
     inkscape:window-x="-9"
     inkscape:window-y="-9"
     inkscape:window-maximized="1"
     fit-margin-top="0"
     fit-margin-left="0"
     fit-margin-right="0"
     fit-margin-bottom="0" />
  <metadata
     id="metadata5">
    <rdf:RDF>
      <cc:Work
         rdf:about="">
        <dc:format>image/svg+xml</dc:format>
        <dc:type
           rdf:resource="http://purl.org/dc/dcmitype/StillImage" />
        <dc:title></dc:title>
      </cc:Work>
    </rdf:RDF>
  </metadata>
  <g
     inkscape:label="Layer 1"
     inkscape:groupmode="layer"
     id="layer1"
     transform="translate(480.41946,-38.671604)">
    <rect
       style="opacity:1;fill:#51305f;fill-opacity:1;stroke:none;stroke-width:4.4000001;stroke-linecap:square;stroke-linejoin:miter;stroke-miterlimit:4;stroke-dasharray:none;stroke-dashoffset:0;stroke-opacity:1"
       id="rect816"
       width="158.75809"
       height="103.16604"
       x="-480.41946"
       y="38.671604" />
    <path
       style="vector-effect:none;fill:#ffd61c;fill-opacity:1;fill-rule:evenodd;stroke:none;stroke-width:3.00304341;stroke-linecap:square;stroke-linejoin:bevel"
       d="m -404.45322,52.359155 c -1.10272,0.03632 -2.1914,0.487834 -3.01273,1.346171 l -12.00082,12.213725 c -2.04507,2.129158 -4.10207,4.249457 -6.13813,6.384623 -1.75376,1.843868 -1.77767,4.363215 -0.0119,6.198071 1.7703,1.83606 3.5713,3.641839 5.40226,5.417241 0.44443,0.42944 0.46822,0.639945 0.0238,1.075385 -2.68171,2.64268 -5.33595,5.309233 -7.98763,7.981942 -1.22765,1.233051 -1.58314,3.088148 -0.89814,4.68757 0.6907,1.618643 2.2222,2.621657 4.1982,2.609657 1.01399,0.029 2.02483,-0.411907 2.87683,-1.260904 3.82288,-3.82588 7.65779,-7.639758 11.47165,-11.47165 1.72975,-1.735759 1.72365,-4.396647 -0.003,-6.147427 -1.83786,-1.864892 -3.68765,-3.714869 -5.54953,-5.555734 -0.30629,-0.300305 -0.33641,-0.46238 -0.0181,-0.792715 l 14.9226,-15.438853 c 0.791,-0.83031 1.21699,-1.942468 1.1834,-3.088698 -0.034,-1.146202 -0.52478,-2.231062 -1.36323,-3.013255 -0.87599,-0.802423 -1.9927,-1.181473 -3.09542,-1.145149 z m 42.31628,0 c -1.10272,0.03632 -2.19192,0.487834 -3.01325,1.346171 l -12.00082,12.213725 c -2.04507,2.129158 -4.10206,4.249457 -6.13812,6.384623 -1.75377,1.843868 -1.77768,4.363215 -0.0119,6.198071 1.77029,1.83606 3.5713,3.641839 5.40225,5.417241 0.44442,0.42944 0.46874,0.639945 0.0243,1.075385 -2.68172,2.64268 -5.33646,5.309233 -7.98814,7.981942 -1.22765,1.233051 -1.58313,3.088148 -0.89814,4.68757 0.6907,1.618643 2.22219,2.621657 4.19819,2.609657 1.01417,0.0292 2.02521,-0.411767 2.87735,-1.260904 3.82288,-3.82588 7.65726,-7.639758 11.47113,-11.47165 1.72975,-1.735759 1.72417,-4.396647 -0.003,-6.147427 -1.83787,-1.864892 -3.68816,-3.714869 -5.55005,-5.555734 -0.3063,-0.300305 -0.3359,-0.46238 -0.0176,-0.792715 l 14.9226,-15.438853 c 0.79101,-0.83031 1.21647,-1.942468 1.18287,-3.088698 -0.0339,-1.146202 -0.52477,-2.231062 -1.36322,-3.013255 -0.87599,-0.802423 -1.99218,-1.181473 -3.0949,-1.145149 z m 4.40593,20.58634 c -1.09389,0.02445 -2.17846,0.464847 -2.99619,1.315683 -0.80542,0.815176 -1.25116,1.918968 -1.23766,3.064928 0.0135,1.145961 0.48515,2.23864 1.30949,3.03444 1.34236,1.33336 2.682,2.6698 4.01835,4.012158 0.57961,0.579591 0.57342,0.585589 -0.0212,1.177189 -3.87093,3.870931 -7.745,7.741608 -11.61893,11.606527 -0.8949,0.897909 -1.40503,1.943186 -1.33893,3.1414 -0.0453,1.1856 0.42172,2.33337 1.28209,3.1502 1.95498,1.95799 3.91278,3.90988 5.86476,5.86786 3.6577,3.66672 7.30645,7.33946 10.97917,10.99416 1.65167,1.64567 3.90685,1.65163 5.45341,0.55552 2.61266,-1.85287 2.35185,-5.04209 0.45992,-6.90397 -4.37842,-4.30336 -8.68503,-8.66972 -13.02142,-13.01212 -0.61263,-0.61563 -0.60675,-0.61583 0.0119,-1.231447 3.86191,-3.858913 7.72675,-7.711828 11.57965,-11.582756 1.81084,-1.819842 1.90413,-4.414171 0.16537,-6.194973 -2.57961,-2.636679 -5.19209,-5.243388 -7.83777,-7.813992 -0.85481,-0.813467 -1.95811,-1.205249 -3.05201,-1.180807 z m -42.17416,0.02479 c -0.22524,0.009 -0.67273,0.015 -1.09916,0.159163 -1.45468,0.470397 -2.55632,1.668491 -2.90319,3.157429 -0.34654,1.489215 0.11244,3.050931 1.20975,4.115511 1.41143,1.360382 2.77148,2.775061 4.17391,4.144452 0.3123,0.303308 0.34574,0.465487 0.0124,0.795816 -3.94298,3.91898 -7.85908,7.862089 -11.79307,11.793077 -1.87986,1.873893 -1.90717,4.471617 -0.0393,6.366537 1.03605,1.05106 2.08437,2.09283 3.12643,3.14089 4.0451,4.06912 8.07797,8.14741 12.13207,12.20752 1.35438,1.35738 3.56805,1.52839 5.27978,0.45631 1.58261,-0.99101 2.34232,-3.13233 1.79576,-4.88911 -0.36937,-1.17119 -1.23143,-1.94899 -2.04225,-2.76882 -3.59165,-3.62767 -7.18906,-7.25231 -10.79572,-10.86497 -0.32131,-0.32132 -0.37875,-0.51009 -0.0274,-0.861447 3.97002,-3.945999 7.91607,-7.919435 11.88609,-11.865425 1.66669,-1.657689 1.78684,-4.384395 0.14418,-6.060093 -2.59463,-2.639672 -5.23439,-5.234226 -7.86205,-7.840867 -0.81983,-0.810823 -1.82286,-1.201004 -3.19826,-1.185973 z m -35.20096,7.697205 c -1.05059,0.03287 -2.11906,0.462225 -3.00085,1.332735 -3.075,3.04328 -6.12973,6.106171 -9.16481,9.189101 -0.3904,0.396412 -0.59156,0.408736 -0.98494,-0.0057 -2.50153,-2.63366 -5.03957,-5.231617 -7.55613,-7.853267 -0.86487,-0.90092 -1.90397,-1.369198 -2.72077,-1.393198 -3.27032,-0.01802 -5.34513,2.681787 -4.63642,5.411557 0.26728,1.018029 0.9036,1.741651 1.59731,2.462382 l 11.93417,12.42043 c 2.54098,2.64688 5.09259,5.28364 7.65482,7.91011 0.39042,0.4024 0.37544,0.62165 -0.0299,1.00304 -2.74479,2.58562 -5.47471,5.18936 -8.19849,7.79901 -1.58861,1.52253 -1.71148,4.18905 -0.29403,5.8167 1.72974,1.98501 4.45953,2.13531 6.41149,0.29145 3.91296,-3.69075 7.79591,-7.41149 11.69387,-11.12025 1.70872,-1.62465 1.79894,-4.44742 0.14727,-6.13813 -2.99103,-3.06011 -5.93445,-6.16534 -8.90746,-9.246459 -0.56455,-0.582591 -0.57333,-0.678889 -0.0238,-1.23145 3.11414,-3.11716 6.24947,-6.210052 9.32759,-9.363252 1.1862,-1.216232 1.4983,-2.756636 0.91571,-4.354256 -0.71135,-1.938846 -2.41362,-2.985355 -4.16461,-2.93057 z"
       id="path22765"
       inkscape:connector-curvature="0" />
  </g>
</svg>
